PathFileType	4	(X/Y/Z)	s09c0401.trc
DataRate	CameraRate	NumFrames	NumMarkers	Units	OrigDataRate	OrigDataStartFrame	OrigNumFrames
200	200	4	50	mm	200	1750	2000
Frame#	Time	racr			lacr			c7			jug			rlel			rdr			llel			ldr			s2			lic			ric			lasi			rasi			rpsi			lpsi			rgt			lgt			rth1			rth2			rth3			rth4			rlfc			rmfc			rsh1			rsh2			rsh3			rsh4			rlmal			rmmal			rcal			rtoe			rmt5			lth1			lth2			lth4			lth3			llfc			lmfc			llmal			lmmal			lcal			lmt5			lsh1			lsh2			lsh3			lsh4			ltoe			SBIKE			LBIKE			RBIKE			
		X1	Y1	Z1	X2	Y2	Z2	X3	Y3	Z3	X4	Y4	Z4	X5	Y5	Z5	X6	Y6	Z6	X7	Y7	Z7	X8	Y8	Z8	X9	Y9	Z9	X10	Y10	Z10	X11	Y11	Z11	X12	Y12	Z12	X13	Y13	Z13	X14	Y14	Z14	X15	Y15	Z15	X16	Y16	Z16	X17	Y17	Z17	X18	Y18	Z18	X19	Y19	Z19	X20	Y20	Z20	X21	Y21	Z21	X22	Y22	Z22	X23	Y23	Z23	X24	Y24	Z24	X25	Y25	Z25	X26	Y26	Z26	X27	Y27	Z27	X28	Y28	Z28	X29	Y29	Z29	X30	Y30	Z30	X31	Y31	Z31	X32	Y32	Z32	X33	Y33	Z33	X34	Y34	Z34	X35	Y35	Z35	X36	Y36	Z36	X37	Y37	Z37	X38	Y38	Z38	X39	Y39	Z39	X40	Y40	Z40	X41	Y41	Z41	X42	Y42	Z42	X43	Y43	Z43	X44	Y44	Z44	X45	Y45	Z45	X46	Y46	Z46	X47	Y47	Z47	X48	Y48	Z48	X49	Y49	Z49	X50	Y50	Z50	
1750	8.7500	766.155461	1209.312802	-38.229101	756.018382	1157.263691	-403.699016	785.252880	1263.628723	-223.809998	750.582665	1130.305710	-217.322059	606.246579	1047.515058	83.428151	652.853652	861.434159	-53.873649	563.795416	1052.470527	-569.053792	626.738361	860.413873	-440.445449	274.877513	1199.322829	-233.611242	415.937711	1149.978665	-367.643117	394.800861	1140.661348	-74.391471	426.250036	1082.163790	-345.911947	418.449060	1074.536868	-92.627419	310.086265	1213.057483	-169.414886	318.782212	1228.216879	-277.907877	317.893998	1007.776670	-50.245867	358.580683	1050.470956	-424.750485	371.542774	875.457052	-51.922259	416.444788	801.864067	-64.214275	411.379653	712.136940	-80.136663	444.051815	809.649453	-85.202858	431.812975	622.528060	-111.150159	409.276262	602.464972	-204.871785	382.254488	532.713088	-74.660827	383.932961	443.854003	-86.214856	340.599178	367.299494	-84.414551	407.703628	440.337987	-119.340288	308.215132	268.280027	-82.626683	311.666528	278.351485	-158.114791	227.207121	257.074928	-117.633646	476.240169	162.345996	-129.506664	394.656992	172.310326	-62.638910	432.630501	934.837664	-415.131902	500.320430	885.458846	-401.119250	525.832694	906.005758	-381.839888	536.797378	802.903521	-396.164810	558.285164	709.596491	-376.624886	550.901541	693.838832	-277.353640	214.109930	586.162362	-406.594895	229.568389	580.476022	-333.745266	134.693606	613.536076	-368.759916	221.304657	464.011759	-430.222636	468.162720	672.551275	-404.323101	395.051353	626.002281	-396.973685	306.475906	620.400112	-403.662509	403.071388	604.283715	-365.339297	296.376656	410.414134	-360.052159	-64.574325	853.375675	-239.917588	21.131722	84.167980	-442.072413	21.157071	84.003990	-43.907017	
1751	8.7550	766.738105	1209.681392	-40.470841	755.098580	1156.376069	-406.452745	784.977443	1263.493982	-227.109613	750.448427	1129.978676	-220.054806	606.601402	1048.356095	81.529579	653.261405	861.367127	-54.368917	562.692215	1050.988981	-570.926059	626.601601	860.740331	-440.618263	274.643124	1198.738728	-230.945154	414.381750	1150.544154	-367.091955	396.453169	1138.910283	-74.048753	425.247041	1082.626397	-345.868380	419.610771	1073.018644	-93.295987	310.928593	1212.151296	-167.042555	318.134563	1228.154536	-275.551198	318.403873	1006.001770	-49.854681	357.310411	1051.870242	-423.584626	368.756221	873.042047	-51.286947	410.452149	797.978503	-64.801511	404.321250	708.780676	-79.455840	439.427412	805.510563	-85.059581	422.837456	618.780494	-111.544184	399.089197	599.009414	-204.932145	373.569000	529.379932	-74.674380	375.960352	440.198880	-86.102511	333.179478	363.618727	-84.031059	399.667679	437.218529	-119.135190	301.231758	264.803971	-82.227548	304.666772	274.350718	-157.759469	220.563673	254.954466	-117.581424	467.322813	154.840383	-129.367852	386.047349	166.604568	-62.472875	434.532318	938.172685	-414.385757	502.434050	890.570253	-401.434469	528.324748	911.621957	-380.871930	542.201847	809.059092	-396.396169	565.346143	715.368816	-375.982555	558.323898	699.382894	-277.518569	221.541089	591.008175	-406.439230	236.364162	586.624041	-331.824436	141.053198	617.719174	-368.633941	230.327034	469.741822	-430.276253	475.787074	678.245133	-403.408218	402.593361	631.760949	-396.421266	314.063421	626.098431	-403.264451	410.514144	609.930701	-364.812354	306.546282	417.280043	-360.505044	-64.574411	853.385009	-239.952273	21.125320	84.158669	-442.073926	21.158918	83.985119	-43.900991	
1752	8.7600	767.211595	1210.204220	-43.133246	754.191523	1155.431608	-409.117825	784.505570	1263.355322	-230.676336	750.332305	1129.763360	-222.774000	607.012810	1049.290240	79.549518	653.556234	861.288784	-54.777412	561.441705	1049.496974	-572.908536	626.462017	860.867954	-440.846126	274.459857	1198.087338	-228.358671	412.805853	1151.227791	-366.419326	398.177262	1137.126312	-73.677969	424.328178	1083.220501	-345.744882	420.804657	1071.481721	-93.976130	312.259541	1211.101618	-164.636900	317.570479	1227.714559	-273.426286	319.117854	1004.236040	-49.358602	355.949237	1053.248526	-422.356455	366.052305	870.743900	-50.534992	405.744310	794.425137	-64.358076	397.445061	705.597942	-78.543817	434.992274	801.515783	-84.685303	413.988162	615.599745	-111.199530	389.125625	595.628208	-204.336942	365.006635	526.472002	-74.594295	367.967247	437.357030	-85.708355	325.662518	360.387193	-83.574670	391.478936	434.565785	-118.715327	294.225545	261.731334	-81.888929	297.558153	270.851519	-157.284527	213.493678	253.380697	-117.431496	458.050269	147.996643	-129.386672	377.022804	161.428694	-62.473691	436.266490	941.669744	-413.774698	506.879916	895.199818	-399.590315	530.597551	917.267858	-380.110385	547.268960	815.363775	-396.982974	572.422164	721.434784	-375.598454	565.437591	705.536929	-276.553760	228.988310	595.338005	-406.181385	243.744487	591.392817	-331.641537	147.642232	621.175955	-368.669775	239.755139	474.752869	-430.308565	483.189178	684.215699	-402.766469	410.133374	637.444370	-395.928309	321.650011	631.466179	-402.965840	418.207972	615.114168	-364.587680	316.683860	423.837995	-360.651957	-64.571571	853.367916	-239.954101	21.134861	84.161103	-442.069620	21.173905	83.990958	-43.899384	
1753	8.7650	767.590452	1210.776726	-46.058354	753.287079	1154.383625	-411.396233	782.277352	1263.169225	-236.554912	750.350026	1129.540910	-225.782179	607.514538	1050.287645	77.583992	653.713793	861.222790	-55.110023	560.131961	1047.923148	-574.778480	626.376879	860.848434	-441.002989	274.211623	1197.285125	-226.002656	411.285340	1151.937528	-365.888944	399.969816	1135.273327	-73.395424	423.587800	1083.898112	-345.680721	421.974812	1069.933436	-94.856496	312.987120	1209.942280	-162.447644	316.522531	1227.612595	-271.106848	319.904810	1002.371244	-48.832811	354.653259	1054.559075	-420.991292	363.499394	868.520719	-49.677173	401.190347	791.354934	-63.812880	390.942591	702.603366	-77.410992	430.407744	797.643664	-84.451324	405.440905	612.732959	-110.563448	379.931532	592.736538	-204.276180	356.621171	524.058256	-74.393167	359.972499	434.903746	-85.208164	317.984543	357.773499	-83.112584	383.519273	432.148914	-118.277249	287.027675	259.392670	-81.618672	290.280287	267.951147	-156.852154	206.231948	252.308860	-117.365874	448.372626	141.774193	-129.171105	367.644113	156.977412	-62.264374	437.954629	945.185763	-413.110031	509.158225	900.899338	-399.592081	532.751817	922.838238	-379.489969	552.028686	821.572991	-397.476741	579.326467	727.517416	-375.181352	572.479868	712.096656	-275.658193	236.490906	599.041874	-405.980179	251.069816	595.649135	-331.527727	154.174733	623.808022	-368.741428	249.392919	479.340636	-430.455480	490.463063	689.956371	-402.144137	417.636136	642.820247	-395.559408	329.165909	636.521938	-402.688307	425.788698	620.391972	-364.245356	327.299891	429.967847	-360.797948	-64.582568	853.357696	-239.968632	21.148848	84.138110	-442.072923	21.152907	83.978874	-43.911185	
